      Complete name : WWE.WrestleMania.XXVIII.2012.04.01.HDTV.XviD-FICEK9.avi
      Format : AVI
      Format/Info : Audio Video Interleave
      Format profile : OpenDML
      File size : 2.92 GiB
      Duration : 3h 57mn
      Overall bit rate mode : Variable
      Overall bit rate : 1 757 Kbps
      Writing application : MEncoder SVN-r30881(20100311-gcc4.3.3)
      Writing library : MPlayer
   Video #0
      ID : 0
      Format : MPEG-4 Visual
      Format profile : Advanced Simple@L5
      Format settings, BVOP : 2
      Format settings, QPel : No
      Format settings, GMC : No warppoints
      Format settings, Matrix : Default (H.263)
      Codec ID : XVID
      Codec ID/Hint : XviD
      Duration : 3h 57mn
      Bit rate : 1 621 Kbps
      Width : 720 pixels
      Height : 406 pixels
      Display aspect ratio : 16:9
      Frame rate : 29.970 fps
      Color space : YUV
      Chroma subsampling : 4:2:0
      Bit depth : 8 bits
      Scan type : Progressive
      Compression mode : Lossy
      Bits/(Pixel*Frame) : 0.185
      Stream size : 2.69 GiB (92%)
      Writing library : XviD 1.2.1 (UTC 2008-12-04)
   Audio #1
      ID : 1
      Format : MPEG Audio
      Format version : Version 1
      Format profile : Layer 3
      Mode : Joint stereo
      Mode extension : MS Stereo
      Codec ID : 55
      Codec ID/Hint : MP3
      Duration : 3h 57mn
      Bit rate mode : Variable
      Bit rate : 123 Kbps
      Channel(s) : 2 channels
      Sampling rate : 48.0 KHz
      Compression mode : Lossy
      Stream size : 210 MiB (7%)
      Alignment : Aligned on interleaves
      Interleave, duration : 24 ms (0.72 video frame)
      Interleave, preload duration : 485 ms